# xmcd
#
# Track frame offsets:
#	150
#	13059
#	32151
#	45769
#	57806
#	74659
#	94014
#	113271
#	135083
#	154710
#	167480
#	188957
#	205779
#	247870
#
# Disc length: 3476 seconds
#
# Revision: 13
# Processed by: cddbd v1.4PL0 Copyright (c) Steve Scherf et al.
# Submitted via: Bouchi 08.2003
#
DISCID=a30d920e
DTITLE=Smashing Pumpkins - Mellon Collie And The Infinite Sadness [CD1)
DYEAR=1995
DGENRE=Alt.Rock
TTITLE0=Mellon Collie And The Infinite Sadness
TTITLE1=Tonight, Tonight
TTITLE2=Jellybelly
TTITLE3=Zero
TTITLE4=Here Is No Why
TTITLE5=Bullet With Butterfly Wings
TTITLE6=To Forgive
TTITLE7=Fuck You (An Ode To No One)
TTITLE8=Love
TTITLE9=Cupid De Locke
TTITLE10=Galapogos
TTITLE11=Muzzle
TTITLE12=Porcelina Of The Vast Oceans
TTITLE13=Take Me Down
EXTD=Dawn to Dusk\n YEAR: 1995
EXTT0=
EXTT1=
EXTT2=
EXTT3=
EXTT4=
EXTT5=
EXTT6=
EXTT7=
EXTT8=
EXTT9=
EXTT10=
EXTT11=
EXTT12=
EXTT13=
PLAYORDER=
